{
  "accessors": [
    {
      "bufferView": 2,
      "componentType": 5126,
      "count": 392,
      "max": [
        244.1079864501953,
        155.44158935546875,
        393.6180419921875
      ],
      "min": [
        -244.1079864501953,
        -155.44158935546875,
        -398.92047119140625
      ],
      "type": "VEC3"
    },
    {
      "bufferView": 2,
      "byteOffset": 4704,
      "componentType": 5126,
      "count": 392,
      "max": [
        0.9861997961997986,
        0.9926164150238037,
        0.999412477016449
      ],
      "min": [
        -0.9862011075019836,
        -0.9926164150238037,
        -0.968174934387207
      ],
      "type": "VEC3"
    },
    {
      "bufferView": 1,
      "componentType": 5126,
      "count": 392,
      "max": [
        1.0071460008621216,
        1.0019030570983887
      ],
      "min": [
        -0.00950200017541647,
        -0.01256099995225668
      ],
      "type": "VEC2"
    },
    {
      "bufferView": 0,
      "componentType": 5125,
      "count": 2244,
      "type": "SCALAR"
    }
  ],
  "asset": {
    "extras": {
      "author": "Akimovcg (https://sketchfab.com/akimovcg)",
      "license": "CC-BY-4.0 (http://creativecommons.org/licenses/by/4.0/)",
      "source": "https://sketchfab.com/3d-models/ethereum-3d-logo-de0c154b6f1c46639864a01360dd6aa0",
      "title": "Ethereum 3D logo"
    },
    "generator": "Sketchfab-12.65.0",
    "version": "2.0"
  },
  "bufferViews": [
    {
      "buffer": 0,
      "byteLength": 8976,
      "name": "floatBufferViews",
      "target": 34963
    },
    {
      "buffer": 0,
      "byteLength": 3136,
      "byteOffset": 8976,
      "byteStride": 8,
      "name": "floatBufferViews",
      "target": 34962
    },
    {
      "buffer": 0,
      "byteLength": 9408,
      "byteOffset": 12112,
      "byteStride": 12,
      "name": "floatBufferViews",
      "target": 34962
    }
  ],
  "buffers": [
    {
      "byteLength": 21520,
      "uri": "scene.bin"
    }
  ],
  "extensionsRequired": [
    "KHR_materials_pbrSpecularGlossiness"
  ],
  "extensionsUsed": [
    "KHR_materials_pbrSpecularGlossiness"
  ],
  "images": [
    {
      "uri": "textures/default_specularGlossiness.png"
    }
  ],
  "materials": [
    {
      "alphaMode": "BLEND",
      "doubleSided": true,
      "extensions": {
        "KHR_materials_pbrSpecularGlossiness": {
          "diffuseFactor": [
            0.5471609046935764,
            0.3636653735842161,
            1.0,
            0.9866981011619211
          ],
          "glossinessFactor": 0.9623774085085943,
          "specularFactor": [
            0.0648518736603517,
            0.014314299018872137,
            0.25202137896926663
          ],
          "specularGlossinessTexture": {
            "index": 0
          }
        }
      },
      "name": "default"
    }
  ],
  "meshes": [
    {
      "name": "Object_0",
      "primitives": [
        {
          "attributes": {
            "NORMAL": 1,
            "POSITION": 0,
            "TEXCOORD_0": 2
          },
          "indices": 3,
          "material": 0,
          "mode": 4
        }
      ]
    }
  ],
  "nodes": [
    {
      "children": [
        1
      ],
      "matrix": [
        1.0,
        0.0,
        0.0,
        0.0,
        0.0,
        2.220446049250313e-16,
        -1.0,
        0.0,
        0.0,
        1.0,
        2.220446049250313e-16,
        0.0,
        0.0,
        0.0,
        0.0,
        1.0
      ],
      "name": "Sketchfab_model"
    },
    {
      "children": [
        2
      ],
      "name": "Ethereum.obj.cleaner.materialmerger.gles"
    },
    {
      "mesh": 0,
      "name": "Object_2"
    }
  ],
  "samplers": [
    {
      "magFilter": 9729,
      "minFilter": 9987,
      "wrapS": 10497,
      "wrapT": 10497
    }
  ],
  "scene": 0,
  "scenes": [
    {
      "name": "Sketchfab_Scene",
      "nodes": [
        0
      ]
    }
  ],
  "textures": [
    {
      "sampler": 0,
      "source": 0
    }
  ]
}
